# xmcd
# 
# Track frame offsets:
#     150
#     14275
#     22835
#     42590
#     60125
#     76493
#     95900
#     114373
#     132528
#     152865
# 
# Disc length: 2304
# 
# Revision: 1
# Processed by: cddbd v1.5.2PL0 Copyright (c) Steve Scherf et al.
# Submitted via: fre:ac v1.0.27
# 
DISCID=7908fe0a
DTITLE=Various Artist - 仮面ライダーエグゼイド　TV主題歌＆挿入歌　ベストソングコレクション
DYEAR=2017
DGENRE=
TTITLE0=三浦大知 - EXCITE
TTITLE1=ポッピーピポパポ（CV：松田るか） - ピンプルペル
TTITLE2=仮面ライダーGIRLS - Let's Try Together
TTITLE3=貴水博之 - Wish in the dark
TTITLE4=ポッピーピポパポ（CV：松田るか） - PEOPLE GAME
TTITLE5=Rayflowe - Real Game
TTITLE6=仮面ライダーGIRLS - 風の向こうへ
TTITLE7=仮面ライダーGIRLS - Stormy Story
TTITLE8=貴水博之 - JUSTICE
TTITLE9=仮面ライダーGIRLS - Time of Victory
EXTD=
EXTT0=
EXTT1=
EXTT2=
EXTT3=
EXTT4=
EXTT5=
EXTT6=
EXTT7=
EXTT8=
EXTT9=
PLAYORDER=
